<svg width="371" height="371" viewBox="0 0 371 371" fill="none" xmlns="http://www.w3.org/2000/svg">
<path d="M340.083 46.375H30.9167C14.0671 46.9933 0.618333 60.4421 0 77.2917V293.708C0.618333 310.558 14.0671 324.007 30.9167 324.625H340.083C356.933 324.007 370.382 310.558 371 293.708V77.2917C370.715 69.1826 367.367 61.4831 361.629 55.7456C355.892 50.0081 348.192 46.6595 340.083 46.375ZM340.083 293.708H30.9167V77.2917H340.083V293.708ZM216.417 262.792V243.469C216.417 217.808 164.786 204.823 139.125 204.823C113.464 204.823 61.8333 217.808 61.8333 243.469V262.792H216.417ZM139.125 108.208C128.875 108.208 119.046 112.28 111.798 119.527C104.551 126.775 100.479 136.605 100.479 146.854C100.479 151.929 101.479 156.955 103.421 161.643C105.363 166.332 108.21 170.592 111.798 174.181C119.046 181.428 128.875 185.5 139.125 185.5C144.2 185.5 149.225 184.5 153.914 182.558C158.603 180.616 162.863 177.769 166.452 174.181C170.04 170.592 172.887 166.332 174.829 161.643C176.771 156.955 177.771 151.929 177.771 146.854C177.771 141.779 176.771 136.754 174.829 132.065C172.887 127.376 170.04 123.116 166.452 119.527C162.863 115.939 158.603 113.092 153.914 111.15C149.225 109.208 144.2 108.208 139.125 108.208ZM216.417 108.208V123.667H309.167V108.208H216.417ZM216.417 139.125V154.583H309.167V139.125H216.417ZM216.417 170.042V185.5H278.25V170.042H216.417Z" fill="#DED27C"/>
</svg>
